DataRate=1200.000000
DataType=double
version=3
OpenSimVersion=4.3-2021-08-27-4bc7ad9
endheader
time	f1_1	f1_2	f1_3	p1_1	p1_2	p1_3	m1_1	m1_2	m1_3	f2_1	f2_2	f2_3	p2_1	p2_2	p2_3	m2_1	m2_2	m2_3	f3_1	f3_2	f3_3	p3_1	p3_2	p3_3	m3_1	m3_2	m3_3
0	-0.1142513320463819	-0.1201463044952883	-2.061607360839844	-255.6999969482422	396.8999938964844	0	22.89590092897472	16.47176743175235	70.11366514259555	0.03118878308037891	-0.2429295501981718	0.15298992395401	253.7999877929688	225.3000030517578	0	41.62630728765714	65.31507622364222	14.46408534804502	-0.09482242834556286	-0.1396536895678336	0.5653373599052429	946.699951171875	380.3999938964844	0	-80.69648671606625	44.54639740366168	-75.59287831492246
0.0008333333333333334	0.08729475107821001	0.4781269391913905	1.700615048408508	-255.6999969482422	396.8999938964844	0	-17.48423390682021	185.6012529639631	2.555544226785541	-0.05955096174930003	0.04821925242660593	0.3311591744422913	253.7999877929688	225.3000030517578	0	35.69437933205603	-46.75033192231336	6.277293441132281	0.250973627674585	0.1978596015881258	0.1255943030118942	946.699951171875	380.3999938964844	0	22.5408100183127	-9.60022465563115	-53.74661986389543
0.001666666666666667	0.1937266840003124	0.01993731009225819	0.08691797405481339	-255.6999969482422	396.8999938964844	0	-8.81756000427394	7.51743177809458	55.93815050070946	-0.2624893423280759	0.03008222799318334	0.9432578682899475	253.7999877929688	225.3000030517578	0	-169.7154999807882	-202.3597664482135	44.83470420052758	0.06715090791145453	0.3510476144272948	-0.7625740170478821	946.699951171875	380.3999938964844	0	-0.4136893828766623	-71.8560204049688	6.801992625288063
0.0025	0.3305977299585948	-0.1840944926959785	0.3532257974147797	-255.6999969482422	396.8999938964844	0	-26.93715979089003	-48.38556980381889	45.91062133557578	-0.04794957232158659	-0.5079697381764831	-0.80806964635849	253.7999877929688	225.3000030517578	0	-50.30466813249023	2.711808364327246	35.20040028605467	-0.2535252319007251	0.1710022728860087	-0.4156807363033295	946.699951171875	380.3999938964844	0	-47.05758293150464	90.76307135019167	-90.02862217973662
0.003333333333333334	0.1018301054910045	0.0654225974107632	0.5294228792190552	-255.6999969482422	396.8999938964844	0	91.1889633113535	-39.51342354742217	-44.80291264427668	-0.06969535778635248	-0.1001186304011776	-0.454096257686615	253.7999877929688	225.3000030517578	0	-52.85986980481075	-421.6851934366502	13.87745579937814	0.2036926299687044	0.1252876728197135	1.735137104988098	946.699951171875	380.3999938964844	0	18.59719580854182	-47.62883892520922	15.74240640184812
0.004166666666666667	0.04080671616533628	0.2188803059127921	-0.3663024008274078	-255.6999969482422	396.8999938964844	0	293.7450055886607	53.51755027933264	-15.35429840434947	-0.4588242393796337	-0.1767847768364372	-0.1057152077555656	253.7999877929688	225.3000030517578	0	63.6610725494621	-28.18111882045545	9.54820763228108	0.2020529386534072	-0.239199027563803	-0.1422279626131058	946.699951171875	380.3999938964844	0	-85.67892658441629	-166.072257704299	-32.87405911869121
0.005	0.1052425489146652	0.8383869367309302	-0.8963660001754761	-255.6999969482422	396.8999938964844	0	102.1055700501229	102.2926616266488	-19.26561741568054	0.02820285708871668	0.2260419294602319	0.4202781319618225	253.7999877929688	225.3000030517578	0	34.94522679313274	7.015882450972472	11.50232894494435	-0.09425293812888894	0.07924603195030681	-0.5884101986885071	946.699951171875	380.3999938964844	0	-149.7640541781523	-5.91530712420432	16.6619367503414
0.005833333333333334	0.04046633248048803	-0.3477387330026615	-0.7269362211227417	-255.6999969482422	396.8999938964844	0	152.3993981304863	15.58408189301017	-26.25057940754694	-0.1990211020021923	0.1551333648041571	0.5042930245399475	253.7999877929688	225.3000030517578	0	120.5042719027385	85.10120380810818	-59.80452336421281	-0.04790934296495328	0.1993891469646479	0.03481976315379143	946.699951171875	380.3999938964844	0	-55.71904611685531	81.38722101751974	-3.033473895288631
0.006666666666666667	0.00961803837507658	-0.07329335611932515	0.172527402639389	-255.6999969482422	396.8999938964844	0	115.7761327004514	113.4442246692801	2.031462738863216	-0.2373191882040631	-0.110686924520796	0.1603980660438538	253.7999877929688	225.3000030517578	0	28.34087525361275	163.4832037039778	125.8534603585621	0.1564895613781346	0.06187292139950967	0.2123405188322067	946.699951171875	380.3999938964844	0	56.34113073340832	43.27409472840282	-21.58369847329991
0.007500000000000001	0.05325272488993599	0.1350864395456819	0.7146340608596802	-255.6999969482422	396.8999938964844	0	-33.34185637367784	-27.48616394937054	37.31932536870659	-0.8429125271936745	-0.2932491640919248	0.06841046363115311	253.7999877929688	225.3000030517578	0	214.5012040579517	56.28879328520399	-3.930339359600236	0.2238151977598946	0.1791846509982874	0.4858619272708893	946.699951171875	380.3999938964844	0	227.8565120067661	-117.9093760389093	-2.636620824773909
0.008333333333333333	-0.5871180836956154	0.1161104279047719	0.6318475008010864	-255.6999969482422	396.8999938964844	0	-271.0773289594678	-196.1453573456072	58.05087644376432	-0.02507554847410522	-0.03892594672448078	-1.156442999839783	253.7999877929688	225.3000030517578	0	-191.7651394695116	-6.570213935265418	-70.74912451326348	-0.2323824001440345	0.3350161985437733	-0.2298973351716995	946.699951171875	380.3999938964844	0	48.1245838792208	-9.966628671861445	6.845176932339397
0.009166666666666667	0.009155755311326539	0.1593832761304288	0.2636757791042328	-255.6999969482422	396.8999938964844	0	-43.14880183508514	-73.75875509624132	-49.97739978095255	0.03262601646380437	0.09469977343482293	-0.02145617827773094	253.7999877929688	225.3000030517578	0	-107.250124009182	-78.49020149279951	-74.31143642533226	-0.002449067517062897	-0.07301250258032846	0.2190543860197067	946.699951171875	380.3999938964844	0	-128.5249802763535	-256.2216813702346	-27.32568118319642
0.01	0.5617591300473204	0.04474989202915484	-1.169772982597351	-255.6999969482422	396.8999938964844	0	-58.02916852192462	64.26542909965308	-7.729480895743386	0.08041164496678201	-0.1256641410285329	-0.02167743071913719	253.7999877929688	225.3000030517578	0	-80.69773970715643	-206.5283397078548	-25.99817234043412	0.2276773617261196	0.04404042780722771	0.6613761782646179	946.699951171875	380.3999938964844	0	-53.45572455756735	-48.2042328784012	-39.14602696966666
0.01083333333333333	0.2008853288689429	0.1336806297595677	-0.9000624418258667	-255.6999969482422	396.8999938964844	0	13.75543409858645	-89.05075398345389	0.7756389408069411	-0.236712241298148	0.002415517315741967	0.07069928199052811	253.7999877929688	225.3000030517578	0	14.22122025672807	19.39737709380516	32.53452666091365	0.08844954648961054	0.2239734662117747	-1.925515055656433	946.699951171875	380.3999938964844	0	-44.43108038252149	-13.96563324336348	29.69905197834788
0.01166666666666667	-0.009268076086840011	-0.04762475355102707	-0.3623465597629547	-255.6999969482422	396.8999938964844	0	-32.17803541076844	-61.45858397712545	4.937030540667952	-0.02062395481046693	-0.155646371749235	0.7618919014930725	253.7999877929688	225.3000030517578	0	-49.08764646789484	183.2258096541478	-25.7236432919781	0.01659478475822939	-0.05417449987336374	-0.05416186526417732	946.699951171875	380.3999938964844	0	60.80761389643911	-40.33630937527971	11.84068615253272
0.0125	0.2110661108059249	-0.1814557929183702	1.334774136543274	-255.6999969482422	396.8999938964844	0	-36.37167764243947	-114.9364061090596	-46.45133357710745	-0.3344897004918431	0.245480861744769	0.7690635323524475	253.7999877929688	225.3000030517578	0	-49.62402345648844	119.8198884255191	-7.077311519185719	-0.09388827200611857	0.1102499853213109	0.126166507601738	946.699951171875	380.3999938964844	0	-158.3859890283646	23.68944580145699	34.74545450016495
